<mxfile host="Electron" agent="Mozilla/5.0 (Windows NT 10.0; Win64; x64) AppleWebKit/537.36 (KHTML, like Gecko) draw.io/28.1.2 Chrome/138.0.7204.243 Electron/37.4.0 Safari/537.36" version="28.1.2">
  <diagram name="Сторінка-1" id="IrJhqZVKiqkFIoltrGHd">
    <mxGraphModel dx="1226" dy="736" grid="1" gridSize="10" guides="1" tooltips="1" connect="1" arrows="1" fold="1" page="1" pageScale="1" pageWidth="827" pageHeight="1169" math="0" shadow="0">
      <root>
        <mxCell id="0" />
        <mxCell id="1" parent="0" />
        <mxCell id="BnD3v3kvIMBMynWHJNCs-1" value="&lt;font style=&quot;font-size: 18px;&quot;&gt;&lt;b&gt;Python Data&lt;/b&gt;&lt;/font&gt;&lt;div&gt;&lt;font style=&quot;font-size: 18px;&quot;&gt;&lt;b&gt;Types&lt;/b&gt;&lt;/font&gt;&lt;/div&gt;" style="rounded=1;whiteSpace=wrap;html=1;" vertex="1" parent="1">
          <mxGeometry x="40" y="310" width="160" height="80" as="geometry" />
        </mxCell>
        <mxCell id="BnD3v3kvIMBMynWHJNCs-2" value="&lt;span style=&quot;font-size: 18px;&quot;&gt;&lt;b&gt;Set&lt;/b&gt;&lt;/span&gt;&lt;div&gt;&lt;span style=&quot;font-size: 18px;&quot;&gt;&lt;font style=&quot;color: rgb(153, 153, 153);&quot;&gt;{2, 4, 6}&lt;/font&gt;&lt;/span&gt;&lt;/div&gt;" style="rounded=1;whiteSpace=wrap;html=1;" vertex="1" parent="1">
          <mxGeometry x="280" y="310" width="160" height="80" as="geometry" />
        </mxCell>
        <mxCell id="BnD3v3kvIMBMynWHJNCs-3" value="&lt;span style=&quot;font-size: 18px;&quot;&gt;&lt;b&gt;Dict&lt;/b&gt;&lt;/span&gt;&lt;div&gt;&lt;span style=&quot;font-size: 18px;&quot;&gt;&lt;font style=&quot;color: rgb(153, 153, 153);&quot;&gt;{1: &#39;a&#39;, 2: &#39;b&#39;}&lt;/font&gt;&lt;/span&gt;&lt;/div&gt;" style="rounded=1;whiteSpace=wrap;html=1;" vertex="1" parent="1">
          <mxGeometry x="280" y="400" width="160" height="80" as="geometry" />
        </mxCell>
        <mxCell id="BnD3v3kvIMBMynWHJNCs-4" value="&lt;span style=&quot;font-size: 18px;&quot;&gt;&lt;b&gt;Bool&lt;/b&gt;&lt;/span&gt;&lt;div&gt;&lt;span style=&quot;font-size: 18px;&quot;&gt;&lt;font style=&quot;color: rgb(153, 153, 153);&quot;&gt;True, False&lt;/font&gt;&lt;/span&gt;&lt;/div&gt;" style="rounded=1;whiteSpace=wrap;html=1;" vertex="1" parent="1">
          <mxGeometry x="280" y="220" width="160" height="80" as="geometry" />
        </mxCell>
        <mxCell id="BnD3v3kvIMBMynWHJNCs-5" value="&lt;span style=&quot;font-size: 18px;&quot;&gt;&lt;b&gt;Numbers&lt;/b&gt;&lt;/span&gt;" style="rounded=1;whiteSpace=wrap;html=1;" vertex="1" parent="1">
          <mxGeometry x="280" y="130" width="160" height="80" as="geometry" />
        </mxCell>
        <mxCell id="BnD3v3kvIMBMynWHJNCs-6" value="&lt;span style=&quot;font-size: 18px;&quot;&gt;&lt;b&gt;Sequence&lt;/b&gt;&lt;/span&gt;" style="rounded=1;whiteSpace=wrap;html=1;" vertex="1" parent="1">
          <mxGeometry x="280" y="490" width="160" height="80" as="geometry" />
        </mxCell>
        <mxCell id="BnD3v3kvIMBMynWHJNCs-7" value="&lt;span style=&quot;font-size: 18px;&quot;&gt;&lt;b&gt;Float&lt;/b&gt;&lt;/span&gt;&lt;div&gt;&lt;span style=&quot;font-size: 18px;&quot;&gt;&lt;font style=&quot;color: rgb(153, 153, 153);&quot;&gt;35.75&lt;/font&gt;&lt;/span&gt;&lt;/div&gt;" style="rounded=1;whiteSpace=wrap;html=1;" vertex="1" parent="1">
          <mxGeometry x="520" y="130" width="160" height="80" as="geometry" />
        </mxCell>
        <mxCell id="BnD3v3kvIMBMynWHJNCs-8" value="&lt;span style=&quot;font-size: 18px;&quot;&gt;&lt;b&gt;Int&lt;/b&gt;&lt;/span&gt;&lt;div&gt;&lt;span style=&quot;font-size: 18px;&quot;&gt;&lt;font style=&quot;color: rgb(153, 153, 153);&quot;&gt;20&lt;/font&gt;&lt;/span&gt;&lt;/div&gt;" style="rounded=1;whiteSpace=wrap;html=1;" vertex="1" parent="1">
          <mxGeometry x="520" y="40" width="160" height="80" as="geometry" />
        </mxCell>
        <mxCell id="BnD3v3kvIMBMynWHJNCs-9" value="&lt;span style=&quot;font-size: 18px;&quot;&gt;&lt;b&gt;Complex&lt;/b&gt;&lt;/span&gt;&lt;div&gt;&lt;span style=&quot;font-size: 18px;&quot;&gt;&lt;font style=&quot;color: rgb(153, 153, 153);&quot;&gt;1+3j&lt;/font&gt;&lt;/span&gt;&lt;/div&gt;" style="rounded=1;whiteSpace=wrap;html=1;" vertex="1" parent="1">
          <mxGeometry x="520" y="220" width="160" height="80" as="geometry" />
        </mxCell>
        <mxCell id="BnD3v3kvIMBMynWHJNCs-10" value="&lt;span style=&quot;font-size: 18px;&quot;&gt;&lt;b&gt;List&lt;/b&gt;&lt;/span&gt;&lt;div&gt;&lt;span style=&quot;font-size: 18px;&quot;&gt;&lt;font style=&quot;color: rgb(153, 153, 153);&quot;&gt;[2, &#39;a&#39;, 5.7]&lt;/font&gt;&lt;/span&gt;&lt;/div&gt;" style="rounded=1;whiteSpace=wrap;html=1;" vertex="1" parent="1">
          <mxGeometry x="520" y="490" width="160" height="80" as="geometry" />
        </mxCell>
        <mxCell id="BnD3v3kvIMBMynWHJNCs-11" value="&lt;span style=&quot;font-size: 18px;&quot;&gt;&lt;b&gt;String&lt;/b&gt;&lt;/span&gt;&lt;div&gt;&lt;span style=&quot;font-size: 18px;&quot;&gt;&lt;font style=&quot;color: rgb(153, 153, 153);&quot;&gt;&#39;Ukraine&#39;&lt;/font&gt;&lt;/span&gt;&lt;/div&gt;" style="rounded=1;whiteSpace=wrap;html=1;" vertex="1" parent="1">
          <mxGeometry x="520" y="400" width="160" height="80" as="geometry" />
        </mxCell>
        <mxCell id="BnD3v3kvIMBMynWHJNCs-12" value="&lt;span style=&quot;font-size: 18px;&quot;&gt;&lt;b&gt;Tuple&lt;/b&gt;&lt;/span&gt;&lt;div&gt;&lt;span style=&quot;font-size: 18px;&quot;&gt;&lt;font style=&quot;color: rgb(153, 153, 153);&quot;&gt;(3, 4.5, &#39;b&#39;)&lt;/font&gt;&lt;/span&gt;&lt;/div&gt;" style="rounded=1;whiteSpace=wrap;html=1;" vertex="1" parent="1">
          <mxGeometry x="520" y="580" width="160" height="80" as="geometry" />
        </mxCell>
        <mxCell id="BnD3v3kvIMBMynWHJNCs-13" value="" style="endArrow=none;html=1;rounded=0;exitX=1;exitY=0.5;exitDx=0;exitDy=0;entryX=0;entryY=0.5;entryDx=0;entryDy=0;" edge="1" parent="1" source="BnD3v3kvIMBMynWHJNCs-1" target="BnD3v3kvIMBMynWHJNCs-2">
          <mxGeometry width="50" height="50" relative="1" as="geometry">
            <mxPoint x="280" y="430" as="sourcePoint" />
            <mxPoint x="330" y="380" as="targetPoint" />
          </mxGeometry>
        </mxCell>
        <mxCell id="BnD3v3kvIMBMynWHJNCs-14" value="" style="endArrow=none;html=1;rounded=0;exitX=1;exitY=0.5;exitDx=0;exitDy=0;entryX=0;entryY=0.5;entryDx=0;entryDy=0;" edge="1" parent="1" source="BnD3v3kvIMBMynWHJNCs-1" target="BnD3v3kvIMBMynWHJNCs-3">
          <mxGeometry width="50" height="50" relative="1" as="geometry">
            <mxPoint x="280" y="430" as="sourcePoint" />
            <mxPoint x="330" y="380" as="targetPoint" />
          </mxGeometry>
        </mxCell>
        <mxCell id="BnD3v3kvIMBMynWHJNCs-15" value="" style="endArrow=none;html=1;rounded=0;exitX=1;exitY=0.5;exitDx=0;exitDy=0;entryX=0;entryY=0.5;entryDx=0;entryDy=0;" edge="1" parent="1" source="BnD3v3kvIMBMynWHJNCs-1" target="BnD3v3kvIMBMynWHJNCs-4">
          <mxGeometry width="50" height="50" relative="1" as="geometry">
            <mxPoint x="280" y="430" as="sourcePoint" />
            <mxPoint x="330" y="380" as="targetPoint" />
          </mxGeometry>
        </mxCell>
        <mxCell id="BnD3v3kvIMBMynWHJNCs-16" value="" style="endArrow=none;html=1;rounded=0;exitX=1;exitY=0.5;exitDx=0;exitDy=0;entryX=0;entryY=0.5;entryDx=0;entryDy=0;" edge="1" parent="1" source="BnD3v3kvIMBMynWHJNCs-1" target="BnD3v3kvIMBMynWHJNCs-6">
          <mxGeometry width="50" height="50" relative="1" as="geometry">
            <mxPoint x="280" y="430" as="sourcePoint" />
            <mxPoint x="330" y="380" as="targetPoint" />
          </mxGeometry>
        </mxCell>
        <mxCell id="BnD3v3kvIMBMynWHJNCs-17" value="" style="endArrow=none;html=1;rounded=0;entryX=0;entryY=0.5;entryDx=0;entryDy=0;" edge="1" parent="1" target="BnD3v3kvIMBMynWHJNCs-5">
          <mxGeometry width="50" height="50" relative="1" as="geometry">
            <mxPoint x="200" y="350" as="sourcePoint" />
            <mxPoint x="330" y="380" as="targetPoint" />
          </mxGeometry>
        </mxCell>
        <mxCell id="BnD3v3kvIMBMynWHJNCs-18" value="" style="endArrow=none;html=1;rounded=0;exitX=1;exitY=0.5;exitDx=0;exitDy=0;entryX=0;entryY=0.5;entryDx=0;entryDy=0;" edge="1" parent="1" source="BnD3v3kvIMBMynWHJNCs-5" target="BnD3v3kvIMBMynWHJNCs-8">
          <mxGeometry width="50" height="50" relative="1" as="geometry">
            <mxPoint x="280" y="430" as="sourcePoint" />
            <mxPoint x="330" y="380" as="targetPoint" />
          </mxGeometry>
        </mxCell>
        <mxCell id="BnD3v3kvIMBMynWHJNCs-19" value="" style="endArrow=none;html=1;rounded=0;entryX=1;entryY=0.5;entryDx=0;entryDy=0;exitX=0;exitY=0.5;exitDx=0;exitDy=0;" edge="1" parent="1" source="BnD3v3kvIMBMynWHJNCs-7" target="BnD3v3kvIMBMynWHJNCs-5">
          <mxGeometry width="50" height="50" relative="1" as="geometry">
            <mxPoint x="280" y="430" as="sourcePoint" />
            <mxPoint x="330" y="380" as="targetPoint" />
          </mxGeometry>
        </mxCell>
        <mxCell id="BnD3v3kvIMBMynWHJNCs-20" value="" style="endArrow=none;html=1;rounded=0;exitX=0;exitY=0.5;exitDx=0;exitDy=0;entryX=1;entryY=0.5;entryDx=0;entryDy=0;" edge="1" parent="1" source="BnD3v3kvIMBMynWHJNCs-9" target="BnD3v3kvIMBMynWHJNCs-5">
          <mxGeometry width="50" height="50" relative="1" as="geometry">
            <mxPoint x="280" y="430" as="sourcePoint" />
            <mxPoint x="450" y="170" as="targetPoint" />
          </mxGeometry>
        </mxCell>
        <mxCell id="BnD3v3kvIMBMynWHJNCs-21" value="" style="endArrow=none;html=1;rounded=0;exitX=1;exitY=0.5;exitDx=0;exitDy=0;entryX=0;entryY=0.5;entryDx=0;entryDy=0;" edge="1" parent="1" source="BnD3v3kvIMBMynWHJNCs-6" target="BnD3v3kvIMBMynWHJNCs-11">
          <mxGeometry width="50" height="50" relative="1" as="geometry">
            <mxPoint x="280" y="430" as="sourcePoint" />
            <mxPoint x="330" y="380" as="targetPoint" />
          </mxGeometry>
        </mxCell>
        <mxCell id="BnD3v3kvIMBMynWHJNCs-22" value="" style="endArrow=none;html=1;rounded=0;exitX=1;exitY=0.5;exitDx=0;exitDy=0;entryX=0;entryY=0.5;entryDx=0;entryDy=0;" edge="1" parent="1" source="BnD3v3kvIMBMynWHJNCs-6" target="BnD3v3kvIMBMynWHJNCs-10">
          <mxGeometry width="50" height="50" relative="1" as="geometry">
            <mxPoint x="280" y="430" as="sourcePoint" />
            <mxPoint x="330" y="380" as="targetPoint" />
          </mxGeometry>
        </mxCell>
        <mxCell id="BnD3v3kvIMBMynWHJNCs-23" value="" style="endArrow=none;html=1;rounded=0;entryX=0;entryY=0.5;entryDx=0;entryDy=0;" edge="1" parent="1" target="BnD3v3kvIMBMynWHJNCs-12">
          <mxGeometry width="50" height="50" relative="1" as="geometry">
            <mxPoint x="440" y="530" as="sourcePoint" />
            <mxPoint x="330" y="380" as="targetPoint" />
          </mxGeometry>
        </mxCell>
      </root>
    </mxGraphModel>
  </diagram>
</mxfile>
